<svg version="1.2" xmlns="http://www.w3.org/2000/svg" viewBox="0 0 128 128" width="2048" height="2048">
	<title>lua-original-svg</title>
	<style>
		tspan { white-space:pre } 
		.s0 { fill: #000080 } 
		.s1 { fill: #808080 } 
		.t2 { font-size: 30px;fill: #f3dc23;font-weight: 705;font-family: "GeometrySoftPro-BoldN", "Geometry Soft Pro Bold N" } 
	</style>
	<g id="LUA ICON">
		<path id="Layer" class="s0" d="m113 29.4c-8 0-14.4-6.3-14.4-14.3 0-8 6.5-14.3 14.4-14.3 7.9 0 14.3 6.4 14.3 14.3 0 7.9-6.3 14.3-14.3 14.3z"/>
		<path id="Layer" fill-rule="evenodd" class="s0" d="m113 64.1c0 27.1-21.9 49-49 49-27.1 0-49-21.9-49-49 0-27.1 22-49 49-49 27 0 49 21.9 49 49zm-28.7-6.1c7.9 0 14.3-6.4 14.3-14.3 0-7.9-6.4-14.3-14.3-14.3-7.9 0-14.3 6.4-14.3 14.3 0 7.9 6.4 14.3 14.3 14.3z"/>
		<path id="Layer" class="s1" d="m66.3 128l-0.1-1.5c1.8-0.1 3.6-0.2 5.4-0.4l0.2 1.5c-1.8 0.2-3.7 0.3-5.5 0.4zm-5.6 0c-1.9-0.1-3.7-0.3-5.6-0.5l0.2-1.5c1.8 0.2 3.6 0.4 5.4 0.5zm16.6-1.4l-0.3-1.4c1.8-0.4 3.5-0.8 5.3-1.4l0.4 1.4c-1.7 0.6-3.5 1.1-5.4 1.4zm-27.7-0.2q-2.7-0.6-5.4-1.5l0.5-1.4c1.7 0.6 3.5 1 5.3 1.5zm38.4-3l-0.6-1.4c1.7-0.7 3.3-1.4 5-2.3l0.7 1.3q-2.5 1.3-5.1 2.4zm-49-0.4c-1.7-0.7-3.4-1.5-5-2.4l0.7-1.3c1.6 0.9 3.3 1.6 4.9 2.4zm59-4.7l-0.8-1.2c1.5-1 3-2 4.5-3.1l0.9 1.2c-1.5 1.1-3.1 2.1-4.6 3.1zm-68.8-0.6c-1.6-1-3.1-2.1-4.5-3.2l0.9-1.2c1.4 1.1 2.9 2.2 4.4 3.2zm77.7-6.1l-1-1.1c1.3-1.2 2.7-2.5 3.9-3.8l1.1 1c-1.3 1.3-2.7 2.6-4 3.9zm-86.5-0.7c-1.4-1.3-2.7-2.6-3.9-4l1.1-1c1.2 1.3 2.5 2.7 3.8 3.9zm94.1-7.5l-1.2-0.9c1.1-1.4 2.2-2.9 3.2-4.4l1.2 0.8c-1 1.5-2.1 3.1-3.2 4.5zm-101.6-0.8c-1.1-1.5-2.2-3-3.2-4.6l1.2-0.8c1 1.5 2 3 3.1 4.5zm107.7-8.5l-1.3-0.7c0.9-1.6 1.6-3.3 2.4-4.9l1.3 0.5zm-113.6-1c-0.8-1.7-1.6-3.4-2.3-5.1l1.3-0.5c0.7 1.7 1.4 3.3 2.3 5zm117.9-9.3l-1.4-0.5c0.6-1.7 1-3.5 1.5-5.3l1.4 0.3c-0.4 1.9-0.9 3.7-1.5 5.5zm-122.1-1c-0.5-1.8-1-3.6-1.4-5.4l1.4-0.3c0.4 1.8 0.8 3.5 1.4 5.3zm124.6-9.9l-1.5-0.2c0.2-1.8 0.4-3.6 0.5-5.4l1.5 0.1c0 1.8-0.2 3.7-0.5 5.5zm-126.9-1c-0.3-1.9-0.4-3.7-0.5-5.6l1.5-0.1c0.1 1.8 0.2 3.6 0.4 5.4zm126-10.1c-0.1-1.8-0.2-3.6-0.4-5.4l1.5-0.2c0.2 1.8 0.4 3.7 0.4 5.6zm-125-1l-1.5-0.1c0.1-1.9 0.3-3.7 0.5-5.6l1.5 0.3c-0.2 1.8-0.4 3.6-0.5 5.4zm123.7-9.8c-0.4-1.8-0.8-3.6-1.4-5.3l1.4-0.4c0.5 1.8 1 3.6 1.4 5.4zm-122.2-1l-1.4-0.3q0.6-2.7 1.5-5.4l1.4 0.5c-0.6 1.7-1.1 3.4-1.5 5.2zm119-9.4c-0.7-1.7-1.4-3.4-2.3-5l1.3-0.7c0.8 1.7 1.6 3.4 2.3 5.1zm-115.6-1l-1.4-0.5c0.7-1.7 1.5-3.4 2.4-5l1.3 0.7c-0.8 1.5-1.6 3.2-2.3 4.8zm5.1-9.6l-1.2-0.8c1-1.6 2.1-3.1 3.2-4.5l1.2 0.9c-1.2 1.4-2.2 2.9-3.2 4.4zm6.7-8.6l-1.1-1c1.3-1.4 2.6-2.7 4-3.9l1 1.1c-1.4 1.2-2.7 2.5-3.9 3.8zm8.1-7.3l-0.9-1.2c1.5-1.1 3-2.2 4.6-3.2l0.8 1.2c-1.6 1.1-3.1 2.1-4.5 3.2zm67-5.4c-1.6-0.8-3.3-1.6-4.9-2.3l0.5-1.4c1.7 0.7 3.4 1.5 5 2.4zm-57.8-0.4l-0.7-1.3c1.7-0.8 3.4-1.6 5.1-2.3l0.6 1.3c-1.7 0.7-3.4 1.5-5 2.3zm47.7-3.8c-1.7-0.6-3.5-1-5.3-1.4l0.3-1.4q2.7 0.6 5.4 1.5zm-37.6-0.3l-0.4-1.4c1.8-0.5 3.6-1 5.4-1.4l0.3 1.4c-1.8 0.4-3.6 0.9-5.3 1.4zm27-2.2c-1.8-0.2-3.6-0.4-5.4-0.5l0.1-1.5c1.9 0.1 3.7 0.3 5.6 0.5zm-16.3-0.1l-0.2-1.5c1.8-0.2 3.7-0.4 5.6-0.4l0.1 1.5c-1.9 0-3.7 0.2-5.5 0.4z"/>
	</g>
	<g id="Folder 2">
		<text id="Guru" style="transform: matrix(1,0,0,1,30,69)" >
			<tspan x="0" y="21.1" class="t2">G</tspan><tspan  y="21.1" class="t2">u</tspan><tspan  y="21.1" class="t2">r</tspan><tspan  y="21.1" class="t2">u
</tspan>
		</text>
	</g>
</svg>